<svg width="121" height="17" viewBox="0 0 121 17" fill="none" xmlns="http://www.w3.org/2000/svg">
<path d="M0.839768 16.864V0.908419H4.24083V3.59568C4.24083 4.33048 4.78668 4.87632 5.52148 4.87632H10.3921V7.94148H7.03306C5.33253 7.94148 4.09387 9.18014 4.09387 10.8807C4.09387 12.5602 5.33253 13.7989 7.03306 13.7989H10.3921V16.864H0.839768ZM24.1305 16.864H20.7295V10.7337C20.7295 9.03318 19.4698 7.79452 17.7903 7.79452C16.0898 7.79452 14.8511 9.03318 14.8511 10.7337V16.864H11.45V0.908419H14.8511V3.59568C14.8511 4.33048 15.397 4.87632 16.1317 4.87632H24.1305V16.864ZM25.3817 4.87632H28.7827V16.864H25.3817V4.87632ZM27.0822 4.18352C26.0535 4.18352 25.2137 3.34375 25.2137 2.31503C25.2137 1.26532 26.0535 0.446547 27.0822 0.446547C28.1109 0.446547 28.9507 1.26532 28.9507 2.31503C28.9507 3.34375 28.1109 4.18352 27.0822 4.18352ZM30.0463 16.864V4.87632H42.7268V16.864H39.3257V10.7337C39.3257 9.03318 38.0661 7.79452 36.3866 7.79452C34.707 7.79452 33.4474 9.03318 33.4474 10.7337V16.864H30.0463ZM43.9779 16.864V0.908419H47.379V7.01773C47.379 8.08844 48.1558 8.88622 49.2475 8.88622C50.2972 8.88622 51.095 8.08844 51.095 7.01773V4.87632H54.475V8.44534C54.475 8.84423 54.643 9.28511 54.9369 9.57903L57.1623 11.8674V16.864H53.7822V14.2187C53.7822 12.8121 52.7535 11.8044 51.3679 11.8044H49.7933C48.3867 11.8044 47.379 12.8121 47.379 14.2187V16.864H43.9779ZM70.3727 16.864H58.2171V10.4608L64.9352 6.47188C66.3418 5.65311 66.0479 3.78463 64.2844 3.78463H58.427V0.908419H69.9528V7.31165L63.1087 11.4055C61.8911 12.0983 62.143 13.9878 63.8855 13.9878H70.3727V16.864ZM71.5131 16.864V4.87632H83.5848V11.9934H75.712C75.0822 11.9934 74.6203 12.4552 74.6203 13.0851C74.6203 13.7149 75.0822 14.1768 75.712 14.1768H83.5848V16.864H71.5131ZM79.197 9.72599C79.9318 9.72599 80.4777 9.15914 80.4777 8.42434C80.4777 7.68955 79.9318 7.1437 79.197 7.1437H75.9009C75.1661 7.1437 74.6203 7.68955 74.6203 8.42434C74.6203 9.15914 75.1661 9.72599 75.9009 9.72599H79.197ZM90.4347 16.864C86.9706 16.864 84.4303 14.3237 84.4303 10.8597C84.4303 7.39563 86.9706 4.87632 90.4347 4.87632H96.8169V16.864H90.4347ZM90.7916 13.9668C92.4501 13.9668 93.8567 12.5602 93.8567 10.8807C93.8567 9.15914 92.4501 7.77352 90.7916 7.77352C89.091 7.77352 87.6844 9.15914 87.6844 10.8807C87.6844 12.5602 89.091 13.9668 90.7916 13.9668ZM98.0847 16.864V4.87632H107.511V7.94148H104.551C102.829 7.94148 101.486 9.3061 101.486 10.9646V16.864H98.0847ZM108.223 16.864V4.87632H120.904V16.864H117.503V10.7337C117.503 9.03318 116.243 7.79452 114.564 7.79452C112.884 7.79452 111.625 9.03318 111.625 10.7337V16.864H108.223Z" fill="#111111"/>
</svg>
